# xmcd
#
# Track frame offsets: 
#        150
#        13185
#        36254
#        56165
#        83690
#        98627
#        115805
#        131567
#        149781
#        171927
#
# Disc length: 2591 seconds
#
# Revision: 0
# Processed by: cddbd v1.5.2PL0 Copyright (c) Steve Scherf et al.
# Submitted via: ExactAudioCopy v0.99pb3
#
DISCID=8b0a1d0a
DTITLE=Jo Jo Zep And The Falcons - Don't Waste It
DYEAR=1976
DGENRE=Rock
TTITLE0=Security
TTITLE1=Dancing Shoes
TTITLE2=If It's Love That You Want Darlin'
TTITLE3=King Of Fools
TTITLE4=Someday It's Gonna Come To You
TTITLE5=We're All In The Same Boat
TTITLE6=Beating Around The Bush
TTITLE7=That's Alright
TTITLE8=Sweet Little Latin Lover
TTITLE9=The Cthulhu
EXTD=
EXTT0=
EXTT1=
EXTT2=
EXTT3=
EXTT4=
EXTT5=
EXTT6=
EXTT7=
EXTT8=
EXTT9=
PLAYORDER=
